<mxfile host="app.diagrams.net" modified="2023-12-16T12:13:18.537Z" agent="Mozilla/5.0 (Windows NT 10.0; Win64; x64) AppleWebKit/537.36 (KHTML, like Gecko) Chrome/118.0.5993.731 YaBrowser/23.11.1.731 Yowser/2.5 Safari/537.36" etag="Xfw8butgiwmYUTrNO11U" version="22.1.11" type="github">
  <diagram name="Страница — 1" id="EjDX6rhUIytPko1aZeNm">
    <mxGraphModel dx="1631" dy="921" grid="1" gridSize="10" guides="1" tooltips="1" connect="1" arrows="1" fold="1" page="1" pageScale="1" pageWidth="827" pageHeight="1169" math="0" shadow="0">
      <root>
        <mxCell id="0" />
        <mxCell id="1" parent="0" />
        <mxCell id="RPOlR05hJdycNf7mbOWo-4" style="edgeStyle=orthogonalEdgeStyle;rounded=0;orthogonalLoop=1;jettySize=auto;html=1;fontSize=14;" edge="1" parent="1" source="RPOlR05hJdycNf7mbOWo-1" target="RPOlR05hJdycNf7mbOWo-2">
          <mxGeometry relative="1" as="geometry" />
        </mxCell>
        <mxCell id="RPOlR05hJdycNf7mbOWo-1" value="&lt;font style=&quot;font-size: 14px;&quot;&gt;начало&lt;/font&gt;" style="ellipse;whiteSpace=wrap;html=1;fontSize=14;" vertex="1" parent="1">
          <mxGeometry x="355" y="220" width="90" height="40" as="geometry" />
        </mxCell>
        <mxCell id="RPOlR05hJdycNf7mbOWo-16" style="edgeStyle=orthogonalEdgeStyle;rounded=0;orthogonalLoop=1;jettySize=auto;html=1;entryX=0.5;entryY=0;entryDx=0;entryDy=0;fontSize=14;" edge="1" parent="1" source="RPOlR05hJdycNf7mbOWo-2" target="RPOlR05hJdycNf7mbOWo-7">
          <mxGeometry relative="1" as="geometry" />
        </mxCell>
        <mxCell id="RPOlR05hJdycNf7mbOWo-2" value="cout &amp;lt;&amp;lt; &quot;Уравнение:&amp;nbsp; &amp;nbsp;x - 2 + sin(1 / x) = 0&quot; &amp;lt;&amp;lt; endl;" style="shape=parallelogram;perimeter=parallelogramPerimeter;whiteSpace=wrap;html=1;fixedSize=1;fontSize=14;" vertex="1" parent="1">
          <mxGeometry x="195" y="330" width="410" height="40" as="geometry" />
        </mxCell>
        <mxCell id="RPOlR05hJdycNf7mbOWo-3" value="&lt;div style=&quot;font-size: 14px;&quot;&gt;#include &amp;lt;iostream&amp;gt;&lt;/div&gt;&lt;div style=&quot;font-size: 14px;&quot;&gt;#include &amp;lt;cmath&amp;gt;&lt;/div&gt;&lt;div style=&quot;font-size: 14px;&quot;&gt;using namespace std;&lt;/div&gt;&lt;div style=&quot;font-size: 14px;&quot;&gt;&lt;div style=&quot;font-size: 14px;&quot;&gt;int main() {&lt;/div&gt;&lt;div style=&quot;font-size: 14px;&quot;&gt;&lt;span style=&quot;white-space: pre; font-size: 14px;&quot;&gt;&#x9;&lt;/span&gt;setlocale(LC_ALL, &quot;Russian&quot;);&lt;span style=&quot;font-size: 14px;&quot;&gt;&lt;/span&gt;&lt;/div&gt;&lt;div style=&quot;font-size: 14px;&quot;&gt;&lt;span style=&quot;font-size: 14px;&quot;&gt;&lt;span style=&quot;white-space: pre; font-size: 14px;&quot;&gt;&#x9;&lt;/span&gt;double E = pow(10, -6), a = 1, b = 2, c, iter = 0;&lt;/span&gt;&lt;/div&gt;&lt;/div&gt;" style="strokeWidth=2;html=1;shape=mxgraph.flowchart.annotation_1;align=left;pointerEvents=1;fontSize=14;" vertex="1" parent="1">
          <mxGeometry x="530" y="210" width="270" height="110" as="geometry" />
        </mxCell>
        <mxCell id="RPOlR05hJdycNf7mbOWo-6" value="" style="endArrow=none;dashed=1;html=1;rounded=0;exitX=0;exitY=0.5;exitDx=0;exitDy=0;exitPerimeter=0;fontSize=14;" edge="1" parent="1" source="RPOlR05hJdycNf7mbOWo-3">
          <mxGeometry width="50" height="50" relative="1" as="geometry">
            <mxPoint x="390" y="430" as="sourcePoint" />
            <mxPoint x="400" y="265" as="targetPoint" />
          </mxGeometry>
        </mxCell>
        <mxCell id="RPOlR05hJdycNf7mbOWo-17" style="edgeStyle=orthogonalEdgeStyle;rounded=0;orthogonalLoop=1;jettySize=auto;html=1;fontSize=14;" edge="1" parent="1" source="RPOlR05hJdycNf7mbOWo-7" target="RPOlR05hJdycNf7mbOWo-8">
          <mxGeometry relative="1" as="geometry" />
        </mxCell>
        <mxCell id="RPOlR05hJdycNf7mbOWo-7" value="c = (a + b) / 2;" style="rounded=0;whiteSpace=wrap;html=1;fontSize=14;" vertex="1" parent="1">
          <mxGeometry x="340" y="430" width="120" height="40" as="geometry" />
        </mxCell>
        <mxCell id="RPOlR05hJdycNf7mbOWo-14" style="edgeStyle=orthogonalEdgeStyle;rounded=0;orthogonalLoop=1;jettySize=auto;html=1;entryX=0.5;entryY=0;entryDx=0;entryDy=0;fontSize=14;" edge="1" parent="1" source="RPOlR05hJdycNf7mbOWo-8" target="RPOlR05hJdycNf7mbOWo-9">
          <mxGeometry relative="1" as="geometry" />
        </mxCell>
        <mxCell id="RPOlR05hJdycNf7mbOWo-15" style="edgeStyle=orthogonalEdgeStyle;rounded=0;orthogonalLoop=1;jettySize=auto;html=1;entryX=0.5;entryY=0;entryDx=0;entryDy=0;fontSize=14;" edge="1" parent="1" source="RPOlR05hJdycNf7mbOWo-8" target="RPOlR05hJdycNf7mbOWo-11">
          <mxGeometry relative="1" as="geometry" />
        </mxCell>
        <mxCell id="RPOlR05hJdycNf7mbOWo-8" value="if (f(a) * f(c) &amp;gt; 0)" style="rhombus;whiteSpace=wrap;html=1;fontSize=14;" vertex="1" parent="1">
          <mxGeometry x="320" y="500" width="160" height="80" as="geometry" />
        </mxCell>
        <mxCell id="RPOlR05hJdycNf7mbOWo-9" value="a = c;" style="rounded=0;whiteSpace=wrap;html=1;fontSize=14;" vertex="1" parent="1">
          <mxGeometry x="220" y="580" width="90" height="40" as="geometry" />
        </mxCell>
        <mxCell id="RPOlR05hJdycNf7mbOWo-11" value="b = c;" style="rounded=0;whiteSpace=wrap;html=1;fontSize=14;" vertex="1" parent="1">
          <mxGeometry x="490" y="580" width="90" height="40" as="geometry" />
        </mxCell>
        <mxCell id="RPOlR05hJdycNf7mbOWo-18" value="1" style="text;html=1;strokeColor=none;fillColor=none;align=center;verticalAlign=middle;whiteSpace=wrap;rounded=0;fontSize=14;" vertex="1" parent="1">
          <mxGeometry x="280" y="510" width="40" height="30" as="geometry" />
        </mxCell>
        <mxCell id="RPOlR05hJdycNf7mbOWo-19" value="0" style="text;html=1;strokeColor=none;fillColor=none;align=center;verticalAlign=middle;whiteSpace=wrap;rounded=0;fontSize=14;" vertex="1" parent="1">
          <mxGeometry x="480" y="510" width="40" height="30" as="geometry" />
        </mxCell>
        <mxCell id="RPOlR05hJdycNf7mbOWo-20" value="" style="endArrow=classic;html=1;rounded=0;exitX=0.5;exitY=1;exitDx=0;exitDy=0;fontSize=14;" edge="1" parent="1" source="RPOlR05hJdycNf7mbOWo-9">
          <mxGeometry width="50" height="50" relative="1" as="geometry">
            <mxPoint x="450" y="620" as="sourcePoint" />
            <mxPoint x="400" y="640" as="targetPoint" />
            <Array as="points">
              <mxPoint x="265" y="640" />
            </Array>
          </mxGeometry>
        </mxCell>
        <mxCell id="RPOlR05hJdycNf7mbOWo-21" value="" style="endArrow=classic;html=1;rounded=0;exitX=0.5;exitY=1;exitDx=0;exitDy=0;fontSize=14;" edge="1" parent="1" source="RPOlR05hJdycNf7mbOWo-11">
          <mxGeometry width="50" height="50" relative="1" as="geometry">
            <mxPoint x="450" y="620" as="sourcePoint" />
            <mxPoint x="400" y="640" as="targetPoint" />
            <Array as="points">
              <mxPoint x="535" y="640" />
            </Array>
          </mxGeometry>
        </mxCell>
        <mxCell id="RPOlR05hJdycNf7mbOWo-22" value="" style="endArrow=classic;html=1;rounded=0;fontSize=14;" edge="1" parent="1" target="RPOlR05hJdycNf7mbOWo-23">
          <mxGeometry width="50" height="50" relative="1" as="geometry">
            <mxPoint x="400" y="640" as="sourcePoint" />
            <mxPoint x="400" y="670" as="targetPoint" />
          </mxGeometry>
        </mxCell>
        <mxCell id="RPOlR05hJdycNf7mbOWo-27" style="edgeStyle=orthogonalEdgeStyle;rounded=0;orthogonalLoop=1;jettySize=auto;html=1;entryX=0.5;entryY=0;entryDx=0;entryDy=0;fontSize=14;" edge="1" parent="1" source="RPOlR05hJdycNf7mbOWo-23" target="RPOlR05hJdycNf7mbOWo-26">
          <mxGeometry relative="1" as="geometry" />
        </mxCell>
        <mxCell id="RPOlR05hJdycNf7mbOWo-23" value="++iter;" style="rounded=0;whiteSpace=wrap;html=1;fontSize=14;" vertex="1" parent="1">
          <mxGeometry x="360" y="670" width="80" height="40" as="geometry" />
        </mxCell>
        <mxCell id="RPOlR05hJdycNf7mbOWo-24" value="" style="endArrow=classic;html=1;rounded=0;exitX=0;exitY=0.5;exitDx=0;exitDy=0;fontSize=14;" edge="1" parent="1" source="RPOlR05hJdycNf7mbOWo-26">
          <mxGeometry width="50" height="50" relative="1" as="geometry">
            <mxPoint x="240" y="790" as="sourcePoint" />
            <mxPoint x="400" y="400" as="targetPoint" />
            <Array as="points">
              <mxPoint x="200" y="775" />
              <mxPoint x="200" y="400" />
            </Array>
          </mxGeometry>
        </mxCell>
        <mxCell id="RPOlR05hJdycNf7mbOWo-26" value="while (abs(a - b) &amp;gt; E);" style="rhombus;whiteSpace=wrap;html=1;fontSize=14;" vertex="1" parent="1">
          <mxGeometry x="307.5" y="740" width="185" height="70" as="geometry" />
        </mxCell>
        <mxCell id="RPOlR05hJdycNf7mbOWo-28" value="1" style="text;html=1;strokeColor=none;fillColor=none;align=center;verticalAlign=middle;whiteSpace=wrap;rounded=0;fontSize=14;" vertex="1" parent="1">
          <mxGeometry x="275" y="750" width="40" height="30" as="geometry" />
        </mxCell>
        <mxCell id="RPOlR05hJdycNf7mbOWo-36" style="edgeStyle=orthogonalEdgeStyle;rounded=0;orthogonalLoop=1;jettySize=auto;html=1;entryX=0.5;entryY=0;entryDx=0;entryDy=0;" edge="1" parent="1" source="RPOlR05hJdycNf7mbOWo-29" target="RPOlR05hJdycNf7mbOWo-35">
          <mxGeometry relative="1" as="geometry" />
        </mxCell>
        <mxCell id="RPOlR05hJdycNf7mbOWo-29" value="cout &amp;lt;&amp;lt; &quot;x = &quot; &amp;lt;&amp;lt; c &amp;lt;&amp;lt; endl &amp;lt;&amp;lt; &quot;Количество итераций: &quot; &amp;lt;&amp;lt; iter;" style="shape=parallelogram;perimeter=parallelogramPerimeter;whiteSpace=wrap;html=1;fixedSize=1;fontSize=14;" vertex="1" parent="1">
          <mxGeometry x="360" y="820" width="430" height="40" as="geometry" />
        </mxCell>
        <mxCell id="RPOlR05hJdycNf7mbOWo-31" value="" style="endArrow=classic;html=1;rounded=0;exitX=1;exitY=0.5;exitDx=0;exitDy=0;entryX=0.5;entryY=0;entryDx=0;entryDy=0;fontSize=14;" edge="1" parent="1" source="RPOlR05hJdycNf7mbOWo-26" target="RPOlR05hJdycNf7mbOWo-29">
          <mxGeometry width="50" height="50" relative="1" as="geometry">
            <mxPoint x="450" y="600" as="sourcePoint" />
            <mxPoint x="610" y="760" as="targetPoint" />
            <Array as="points">
              <mxPoint x="575" y="775" />
            </Array>
          </mxGeometry>
        </mxCell>
        <mxCell id="RPOlR05hJdycNf7mbOWo-32" value="0" style="text;html=1;strokeColor=none;fillColor=none;align=center;verticalAlign=middle;whiteSpace=wrap;rounded=0;fontSize=14;" vertex="1" parent="1">
          <mxGeometry x="485" y="750" width="40" height="30" as="geometry" />
        </mxCell>
        <mxCell id="RPOlR05hJdycNf7mbOWo-33" value="{" style="text;html=1;strokeColor=none;fillColor=none;align=center;verticalAlign=middle;whiteSpace=wrap;rounded=0;fontSize=14;" vertex="1" parent="1">
          <mxGeometry x="400" y="400" width="40" height="30" as="geometry" />
        </mxCell>
        <mxCell id="RPOlR05hJdycNf7mbOWo-34" value="}" style="text;html=1;strokeColor=none;fillColor=none;align=center;verticalAlign=middle;whiteSpace=wrap;rounded=0;fontSize=14;" vertex="1" parent="1">
          <mxGeometry x="400" y="720" width="40" height="30" as="geometry" />
        </mxCell>
        <mxCell id="RPOlR05hJdycNf7mbOWo-35" value="return 0;}" style="ellipse;whiteSpace=wrap;html=1;fontSize=14;" vertex="1" parent="1">
          <mxGeometry x="515" y="890" width="120" height="50" as="geometry" />
        </mxCell>
        <mxCell id="RPOlR05hJdycNf7mbOWo-37" value="&lt;font style=&quot;font-size: 14px;&quot;&gt;начало&lt;/font&gt;" style="ellipse;whiteSpace=wrap;html=1;fontSize=14;" vertex="1" parent="1">
          <mxGeometry x="635" y="410" width="90" height="40" as="geometry" />
        </mxCell>
        <mxCell id="RPOlR05hJdycNf7mbOWo-38" value="&lt;font style=&quot;font-size: 14px;&quot;&gt;return x - 2 + sin(1 / x);}&lt;/font&gt;" style="ellipse;whiteSpace=wrap;html=1;fontSize=14;" vertex="1" parent="1">
          <mxGeometry x="587.5" y="520" width="185" height="40" as="geometry" />
        </mxCell>
        <mxCell id="RPOlR05hJdycNf7mbOWo-39" value="double f(double x) {" style="shape=process;whiteSpace=wrap;html=1;backgroundOutline=1;fontSize=14;" vertex="1" parent="1">
          <mxGeometry x="740" y="450" width="170" height="50" as="geometry" />
        </mxCell>
        <mxCell id="RPOlR05hJdycNf7mbOWo-42" value="" style="endArrow=classic;html=1;rounded=0;exitX=0.5;exitY=1;exitDx=0;exitDy=0;entryX=0.5;entryY=0;entryDx=0;entryDy=0;" edge="1" parent="1" source="RPOlR05hJdycNf7mbOWo-37" target="RPOlR05hJdycNf7mbOWo-38">
          <mxGeometry width="50" height="50" relative="1" as="geometry">
            <mxPoint x="580" y="540" as="sourcePoint" />
            <mxPoint x="630" y="490" as="targetPoint" />
            <Array as="points" />
          </mxGeometry>
        </mxCell>
        <mxCell id="RPOlR05hJdycNf7mbOWo-43" value="" style="endArrow=none;html=1;rounded=0;entryX=0;entryY=0.5;entryDx=0;entryDy=0;" edge="1" parent="1" target="RPOlR05hJdycNf7mbOWo-39">
          <mxGeometry width="50" height="50" relative="1" as="geometry">
            <mxPoint x="680" y="475" as="sourcePoint" />
            <mxPoint x="630" y="490" as="targetPoint" />
          </mxGeometry>
        </mxCell>
      </root>
    </mxGraphModel>
  </diagram>
</mxfile>
